<?xml version="1.0" encoding="UTF-8"?>
<svg version="1.1" xmlns="http://www.w3.org/2000/svg" width="1064" height="162">
<path d="M0,0 L57,0 L57,1 L61,1 L61,2 L63,2 L63,3 L64,3 L64,4 L65,4 L65,5 L66,5 L66,6 L67,6 L67,7 L68,7 L68,9 L69,9 L69,13 L70,13 L70,14 L73,14 L73,15 L75,15 L75,16 L77,16 L77,17 L78,17 L78,18 L79,18 L79,19 L80,19 L80,20 L81,20 L81,22 L82,22 L82,25 L83,25 L83,27 L85,27 L85,28 L88,28 L88,29 L90,29 L90,30 L91,30 L91,31 L92,31 L92,32 L93,32 L93,33 L94,33 L94,35 L95,35 L95,37 L96,37 L96,85 L95,85 L95,87 L94,87 L94,89 L93,89 L93,90 L92,90 L92,91 L91,91 L91,92 L90,92 L90,93 L89,93 L89,94 L86,94 L86,95 L83,95 L83,97 L82,97 L82,100 L81,100 L81,102 L80,102 L80,103 L79,103 L79,104 L78,104 L78,105 L77,105 L77,106 L76,106 L76,107 L74,107 L74,108 L70,108 L70,109 L56,109 L56,139 L55,139 L55,141 L54,141 L54,143 L53,143 L53,144 L52,144 L52,145 L51,145 L51,146 L49,146 L49,147 L47,147 L47,148 L43,148 L43,149 L2,149 L2,148 L-2,148 L-2,147 L-5,147 L-5,146 L-6,146 L-6,145 L-7,145 L-7,144 L-8,144 L-8,143 L-9,143 L-9,142 L-10,142 L-10,140 L-11,140 L-11,138 L-12,138 L-12,11 L-11,11 L-11,9 L-10,9 L-10,7 L-9,7 L-9,6 L-8,6 L-8,5 L-7,5 L-7,4 L-6,4 L-6,3 L-5,3 L-5,2 L-3,2 L-3,1 L0,1 Z M0,2 L0,3 L-3,3 L-3,4 L-5,4 L-5,5 L-6,5 L-6,6 L-7,6 L-7,8 L-8,8 L-8,9 L-9,9 L-9,11 L-10,11 L-10,138 L-9,138 L-9,140 L-8,140 L-8,142 L-7,142 L-7,143 L-6,143 L-6,144 L-4,144 L-4,145 L-2,145 L-2,146 L1,146 L1,147 L43,147 L43,146 L47,146 L47,145 L49,145 L49,144 L50,144 L50,143 L51,143 L51,142 L52,142 L52,141 L53,141 L53,138 L54,138 L54,108 L55,108 L55,107 L71,107 L71,106 L74,106 L74,105 L76,105 L76,104 L77,104 L77,103 L78,103 L78,102 L79,102 L79,100 L80,100 L80,97 L81,97 L81,94 L82,94 L82,93 L86,93 L86,92 L88,92 L88,91 L90,91 L90,90 L91,90 L91,88 L92,88 L92,87 L93,87 L93,85 L94,85 L94,37 L93,37 L93,35 L92,35 L92,34 L91,34 L91,33 L90,33 L90,32 L89,32 L89,31 L88,31 L88,30 L85,30 L85,29 L81,29 L81,25 L80,25 L80,22 L79,22 L79,21 L78,21 L78,20 L77,20 L77,19 L76,19 L76,18 L75,18 L75,17 L73,17 L73,16 L69,16 L69,15 L68,15 L68,13 L67,13 L67,9 L66,9 L66,8 L65,8 L65,6 L64,6 L64,5 L63,5 L63,4 L61,4 L61,3 L58,3 L58,2 Z " fill="#000000" transform="translate(45,7)"/>
<path d="M0,0 L18,0 L18,1 L21,1 L21,2 L23,2 L23,3 L24,3 L24,4 L26,4 L26,6 L27,6 L27,7 L28,7 L28,9 L29,9 L29,12 L30,12 L30,43 L29,43 L29,47 L28,47 L28,49 L29,49 L29,53 L30,53 L30,107 L46,107 L46,108 L48,108 L48,109 L50,109 L50,110 L53,110 L53,109 L55,109 L55,108 L57,108 L57,107 L60,107 L60,105 L61,105 L61,102 L62,102 L62,100 L61,100 L61,98 L60,98 L60,82 L59,82 L59,81 L55,81 L55,80 L53,80 L53,79 L52,79 L52,78 L51,78 L51,77 L50,77 L50,76 L49,76 L49,74 L48,74 L48,72 L47,72 L47,66 L46,66 L46,65 L47,65 L47,64 L46,64 L46,63 L47,63 L47,62 L46,62 L46,61 L47,61 L47,60 L46,60 L46,59 L47,59 L47,58 L46,58 L46,57 L47,57 L47,51 L48,51 L48,48 L49,48 L49,47 L50,47 L50,45 L51,45 L51,44 L52,44 L52,43 L54,43 L54,42 L56,42 L56,41 L59,41 L59,40 L89,40 L89,41 L93,41 L93,42 L95,42 L95,43 L96,43 L96,44 L97,44 L97,45 L98,45 L98,46 L99,46 L99,48 L100,48 L100,50 L101,50 L101,53 L102,53 L102,54 L105,54 L105,55 L110,55 L110,54 L113,54 L113,53 L114,53 L114,50 L115,50 L115,48 L116,48 L116,46 L117,46 L117,45 L118,45 L118,44 L119,44 L119,43 L120,43 L120,42 L122,42 L122,41 L126,41 L126,40 L142,40 L142,41 L146,41 L146,42 L148,42 L148,43 L149,43 L149,44 L151,44 L151,46 L152,46 L152,47 L153,47 L153,49 L154,49 L154,52 L155,52 L155,70 L154,70 L154,74 L153,74 L153,75 L152,75 L152,77 L151,77 L151,78 L150,78 L150,79 L148,79 L148,80 L146,80 L146,81 L143,81 L143,82 L142,82 L142,83 L141,83 L141,86 L140,86 L140,89 L141,89 L141,93 L142,93 L142,107 L144,107 L144,108 L147,108 L147,109 L149,109 L149,110 L150,110 L150,111 L151,111 L151,112 L152,112 L152,114 L153,114 L153,115 L154,115 L154,118 L155,118 L155,137 L154,137 L154,140 L153,140 L153,142 L152,142 L152,143 L151,143 L151,144 L150,144 L150,145 L149,145 L149,146 L147,146 L147,147 L146,147 L146,148 L141,148 L141,149 L114,149 L114,148 L110,148 L110,147 L108,147 L108,146 L106,146 L106,145 L105,145 L105,144 L104,144 L104,143 L103,143 L103,142 L102,142 L102,140 L101,140 L101,137 L100,137 L100,135 L97,135 L97,134 L91,134 L91,135 L88,135 L88,139 L87,139 L87,141 L86,141 L86,142 L85,142 L85,143 L84,143 L84,145 L82,145 L82,146 L81,146 L81,147 L79,147 L79,148 L75,148 L75,149 L60,149 L60,148 L56,148 L56,147 L54,147 L54,146 L53,146 L53,145 L51,145 L51,146 L49,146 L49,147 L47,147 L47,148 L43,148 L43,149 L-52,149 L-52,148 L-56,148 L-56,147 L-58,147 L-58,146 L-59,146 L-59,145 L-60,145 L-60,144 L-61,144 L-61,143 L-62,143 L-62,142 L-63,142 L-63,141 L-64,141 L-64,138 L-65,138 L-65,118 L-64,118 L-64,115 L-63,115 L-63,113 L-62,113 L-62,112 L-61,112 L-61,111 L-60,111 L-60,110 L-59,110 L-59,109 L-57,109 L-57,108 L-55,108 L-55,107 L-39,107 L-39,82 L-53,82 L-53,81 L-56,81 L-56,80 L-58,80 L-58,79 L-60,79 L-60,78 L-61,78 L-61,77 L-62,77 L-62,75 L-63,75 L-63,74 L-64,74 L-64,71 L-65,71 L-65,51 L-64,51 L-64,48 L-63,48 L-63,47 L-62,47 L-62,45 L-61,45 L-61,44 L-60,44 L-60,43 L-58,43 L-58,42 L-56,42 L-56,41 L-52,41 L-52,40 L-12,40 L-12,12 L-11,12 L-11,9 L-10,9 L-10,7 L-9,7 L-9,6 L-8,6 L-8,5 L-7,5 L-7,4 L-6,4 L-6,3 L-5,3 L-5,2 L-3,2 L-3,1 L0,1 Z M0,2 L0,3 L-3,3 L-3,4 L-4,4 L-4,5 L-5,5 L-5,6 L-6,6 L-6,7 L-7,7 L-7,8 L-8,8 L-8,9 L-9,9 L-9,12 L-10,12 L-10,42 L-53,42 L-53,43 L-56,43 L-56,44 L-58,44 L-58,45 L-59,45 L-59,46 L-60,46 L-60,47 L-61,47 L-61,49 L-62,49 L-62,51 L-63,51 L-63,71 L-62,71 L-62,73 L-61,73 L-61,75 L-60,75 L-60,76 L-59,76 L-59,77 L-58,77 L-58,78 L-56,78 L-56,79 L-53,79 L-53,80 L-37,80 L-37,109 L-55,109 L-55,110 L-57,110 L-57,111 L-58,111 L-58,112 L-59,112 L-59,113 L-60,113 L-60,114 L-61,114 L-61,115 L-62,115 L-62,118 L-63,118 L-63,124 L-64,124 L-64,125 L-63,125 L-63,130 L-64,130 L-64,131 L-63,131 L-63,138 L-62,138 L-62,140 L-61,140 L-61,142 L-60,142 L-60,143 L-59,143 L-59,144 L-57,144 L-57,145 L-55,145 L-55,146 L-52,146 L-52,147 L43,147 L43,146 L47,146 L47,145 L49,145 L49,144 L50,144 L50,143 L53,143 L53,144 L55,144 L55,145 L56,145 L56,146 L60,146 L60,147 L75,147 L75,146 L79,146 L79,145 L81,145 L81,144 L82,144 L82,143 L83,143 L83,142 L84,142 L84,140 L85,140 L85,139 L86,139 L86,134 L87,134 L87,133 L91,133 L91,132 L93,132 L93,131 L95,131 L95,132 L97,132 L97,133 L101,133 L101,134 L102,134 L102,137 L103,137 L103,140 L104,140 L104,141 L105,141 L105,143 L107,143 L107,144 L108,144 L108,145 L110,145 L110,146 L113,146 L113,147 L142,147 L142,146 L145,146 L145,145 L147,145 L147,144 L149,144 L149,143 L150,143 L150,142 L151,142 L151,140 L152,140 L152,138 L153,138 L153,118 L152,118 L152,116 L151,116 L151,114 L150,114 L150,113 L149,113 L149,112 L148,112 L148,111 L147,111 L147,110 L144,110 L144,109 L140,109 L140,93 L139,93 L139,89 L138,89 L138,86 L139,86 L139,83 L140,83 L140,80 L143,80 L143,79 L146,79 L146,78 L148,78 L148,77 L149,77 L149,76 L150,76 L150,75 L151,75 L151,73 L152,73 L152,71 L153,71 L153,52 L152,52 L152,49 L151,49 L151,47 L150,47 L150,46 L149,46 L149,45 L148,45 L148,44 L146,44 L146,43 L143,43 L143,42 L126,42 L126,43 L123,43 L123,44 L121,44 L121,45 L120,45 L120,46 L118,46 L118,48 L117,48 L117,50 L116,50 L116,53 L115,53 L115,55 L114,55 L114,56 L110,56 L110,57 L105,57 L105,56 L101,56 L101,55 L100,55 L100,54 L99,54 L99,50 L98,50 L98,48 L97,48 L97,47 L96,47 L96,46 L95,46 L95,45 L94,45 L94,44 L93,44 L93,43 L90,43 L90,42 L59,42 L59,43 L56,43 L56,44 L54,44 L54,45 L53,45 L53,46 L52,46 L52,47 L51,47 L51,49 L50,49 L50,51 L49,51 L49,54 L48,54 L48,67 L49,67 L49,72 L50,72 L50,74 L51,74 L51,75 L52,75 L52,76 L53,76 L53,77 L54,77 L54,78 L56,78 L56,79 L58,79 L58,80 L62,80 L62,97 L63,97 L63,100 L64,100 L64,102 L63,102 L63,105 L62,105 L62,108 L61,108 L61,109 L57,109 L57,110 L55,110 L55,111 L54,111 L54,112 L53,112 L53,113 L50,113 L50,112 L49,112 L49,111 L48,111 L48,110 L46,110 L46,109 L28,109 L28,52 L27,52 L27,49 L26,49 L26,46 L27,46 L27,44 L28,44 L28,12 L27,12 L27,9 L26,9 L26,7 L25,7 L25,6 L24,6 L24,5 L23,5 L23,4 L21,4 L21,3 L18,3 L18,2 Z " fill="#000000" transform="translate(210,7)"/>
<path d="M0,0 L71,0 L71,1 L75,1 L75,2 L77,2 L77,3 L78,3 L78,4 L79,4 L79,5 L80,5 L80,6 L81,6 L81,8 L82,8 L82,10 L83,10 L83,15 L84,15 L84,107 L99,107 L99,108 L102,108 L102,109 L103,109 L103,110 L105,110 L105,111 L106,111 L106,112 L107,112 L107,114 L108,114 L108,115 L109,115 L109,118 L110,118 L110,138 L109,138 L109,141 L108,141 L108,142 L107,142 L107,143 L106,143 L106,145 L104,145 L104,146 L103,146 L103,147 L101,147 L101,148 L96,148 L96,149 L2,149 L2,148 L-2,148 L-2,147 L-4,147 L-4,146 L-6,146 L-6,145 L-7,145 L-7,144 L-8,144 L-8,143 L-9,143 L-9,141 L-10,141 L-10,139 L-11,139 L-11,135 L-12,135 L-12,121 L-11,121 L-11,117 L-10,117 L-10,114 L-9,114 L-9,113 L-8,113 L-8,112 L-7,112 L-7,111 L-6,111 L-6,110 L-5,110 L-5,109 L-3,109 L-3,108 L-1,108 L-1,107 L15,107 L15,42 L-1,42 L-1,41 L-3,41 L-3,40 L-5,40 L-5,39 L-6,39 L-6,38 L-7,38 L-7,37 L-8,37 L-8,36 L-9,36 L-9,34 L-10,34 L-10,33 L-11,33 L-11,27 L-12,27 L-12,14 L-11,14 L-11,10 L-10,10 L-10,8 L-9,8 L-9,6 L-8,6 L-8,5 L-7,5 L-7,4 L-6,4 L-6,3 L-5,3 L-5,2 L-3,2 L-3,1 L0,1 Z M0,2 L0,3 L-3,3 L-3,4 L-4,4 L-4,5 L-5,5 L-5,6 L-6,6 L-6,7 L-7,7 L-7,8 L-8,8 L-8,10 L-9,10 L-9,13 L-10,13 L-10,29 L-9,29 L-9,32 L-8,32 L-8,34 L-7,34 L-7,35 L-6,35 L-6,37 L-4,37 L-4,38 L-3,38 L-3,39 L-1,39 L-1,40 L17,40 L17,109 L-1,109 L-1,110 L-3,110 L-3,111 L-5,111 L-5,112 L-6,112 L-6,113 L-7,113 L-7,115 L-8,115 L-8,117 L-9,117 L-9,120 L-10,120 L-10,136 L-9,136 L-9,139 L-8,139 L-8,141 L-7,141 L-7,142 L-6,142 L-6,143 L-5,143 L-5,144 L-4,144 L-4,145 L-2,145 L-2,146 L2,146 L2,147 L96,147 L96,146 L101,146 L101,145 L103,145 L103,144 L104,144 L104,143 L105,143 L105,142 L106,142 L106,140 L107,140 L107,138 L108,138 L108,118 L107,118 L107,115 L106,115 L106,114 L105,114 L105,113 L104,113 L104,112 L103,112 L103,111 L101,111 L101,110 L99,110 L99,109 L82,109 L82,14 L81,14 L81,10 L80,10 L80,8 L79,8 L79,7 L78,7 L78,6 L77,6 L77,5 L76,5 L76,4 L74,4 L74,3 L72,3 L72,2 Z " fill="#000000" transform="translate(492,7)"/>
<path d="M0,0 L57,0 L57,1 L61,1 L61,2 L63,2 L63,3 L64,3 L64,4 L65,4 L65,5 L66,5 L66,6 L67,6 L67,7 L68,7 L68,9 L69,9 L69,12 L70,12 L70,14 L73,14 L73,15 L75,15 L75,16 L77,16 L77,17 L78,17 L78,18 L79,18 L79,19 L80,19 L80,20 L81,20 L81,22 L82,22 L82,24 L83,24 L83,27 L85,27 L85,28 L88,28 L88,29 L90,29 L90,30 L91,30 L91,31 L92,31 L92,32 L93,32 L93,33 L94,33 L94,35 L95,35 L95,37 L96,37 L96,43 L97,43 L97,44 L96,44 L96,45 L97,45 L97,48 L96,48 L96,49 L97,49 L97,52 L96,52 L96,53 L97,53 L97,56 L96,56 L96,57 L97,57 L97,60 L96,60 L96,61 L97,61 L97,64 L96,64 L96,65 L97,65 L97,68 L96,68 L96,69 L97,69 L97,72 L96,72 L96,73 L97,73 L97,76 L96,76 L96,77 L97,77 L97,78 L96,78 L96,85 L95,85 L95,88 L94,88 L94,89 L93,89 L93,90 L92,90 L92,91 L91,91 L91,92 L90,92 L90,93 L89,93 L89,94 L86,94 L86,95 L83,95 L83,98 L82,98 L82,100 L81,100 L81,102 L80,102 L80,104 L79,104 L79,105 L77,105 L77,106 L76,106 L76,107 L74,107 L74,108 L70,108 L70,109 L57,109 L57,110 L56,110 L56,111 L57,111 L57,112 L56,112 L56,113 L57,113 L57,114 L56,114 L56,115 L57,115 L57,117 L56,117 L56,118 L57,118 L57,120 L56,120 L56,121 L57,121 L57,122 L56,122 L56,123 L57,123 L57,124 L56,124 L56,125 L57,125 L57,126 L56,126 L56,127 L57,127 L57,128 L56,128 L56,129 L57,129 L57,131 L56,131 L56,132 L57,132 L57,133 L56,133 L56,139 L55,139 L55,141 L54,141 L54,143 L53,143 L53,144 L52,144 L52,145 L51,145 L51,146 L49,146 L49,147 L47,147 L47,148 L43,148 L43,149 L1,149 L1,148 L-2,148 L-2,147 L-4,147 L-4,146 L-6,146 L-6,145 L-7,145 L-7,144 L-8,144 L-8,143 L-9,143 L-9,142 L-10,142 L-10,140 L-11,140 L-11,137 L-12,137 L-12,12 L-11,12 L-11,9 L-10,9 L-10,7 L-9,7 L-9,6 L-8,6 L-8,5 L-7,5 L-7,4 L-6,4 L-6,3 L-5,3 L-5,2 L-3,2 L-3,1 L0,1 Z M0,2 L0,3 L-3,3 L-3,4 L-4,4 L-4,5 L-6,5 L-6,6 L-7,6 L-7,8 L-8,8 L-8,9 L-9,9 L-9,12 L-10,12 L-10,138 L-9,138 L-9,140 L-8,140 L-8,141 L-7,141 L-7,143 L-6,143 L-6,144 L-4,144 L-4,145 L-2,145 L-2,146 L1,146 L1,147 L43,147 L43,146 L47,146 L47,145 L49,145 L49,144 L50,144 L50,143 L51,143 L51,142 L52,142 L52,141 L53,141 L53,139 L54,139 L54,133 L55,133 L55,113 L54,113 L54,112 L55,112 L55,107 L71,107 L71,106 L74,106 L74,105 L76,105 L76,104 L77,104 L77,103 L78,103 L78,102 L79,102 L79,100 L80,100 L80,98 L81,98 L81,94 L82,94 L82,93 L86,93 L86,92 L88,92 L88,91 L90,91 L90,90 L91,90 L91,89 L92,89 L92,87 L93,87 L93,85 L94,85 L94,81 L95,81 L95,41 L94,41 L94,37 L93,37 L93,35 L92,35 L92,34 L91,34 L91,32 L89,32 L89,31 L88,31 L88,30 L85,30 L85,29 L82,29 L82,28 L81,28 L81,24 L80,24 L80,22 L79,22 L79,21 L78,21 L78,20 L77,20 L77,19 L76,19 L76,18 L75,18 L75,17 L73,17 L73,16 L69,16 L69,15 L68,15 L68,12 L67,12 L67,9 L66,9 L66,7 L65,7 L65,6 L64,6 L64,5 L63,5 L63,4 L61,4 L61,3 L58,3 L58,2 Z " fill="#000000" transform="translate(682,7)"/>
<path d="M0,0 L71,0 L71,1 L74,1 L74,2 L76,2 L76,3 L77,3 L77,4 L79,4 L79,6 L80,6 L80,7 L81,7 L81,9 L82,9 L82,12 L83,12 L83,31 L82,31 L82,33 L81,33 L81,35 L80,35 L80,37 L79,37 L79,38 L78,38 L78,39 L76,39 L76,40 L75,40 L75,41 L72,41 L72,42 L56,42 L56,53 L57,53 L57,54 L73,54 L73,55 L76,55 L76,56 L77,56 L77,57 L78,57 L78,58 L79,58 L79,59 L80,59 L80,60 L81,60 L81,62 L82,62 L82,65 L83,65 L83,84 L82,84 L82,87 L81,87 L81,88 L80,88 L80,90 L79,90 L79,91 L78,91 L78,92 L77,92 L77,93 L75,93 L75,94 L73,94 L73,95 L57,95 L57,96 L56,96 L56,106 L57,106 L57,107 L86,107 L86,108 L88,108 L88,109 L90,109 L90,110 L91,110 L91,111 L92,111 L92,112 L93,112 L93,113 L94,113 L94,115 L95,115 L95,118 L96,118 L96,138 L95,138 L95,141 L94,141 L94,142 L93,142 L93,143 L92,143 L92,144 L91,144 L91,145 L90,145 L90,146 L89,146 L89,147 L87,147 L87,148 L83,148 L83,149 L1,149 L1,148 L-2,148 L-2,147 L-5,147 L-5,146 L-6,146 L-6,145 L-7,145 L-7,144 L-8,144 L-8,143 L-9,143 L-9,142 L-10,142 L-10,140 L-11,140 L-11,138 L-12,138 L-12,11 L-11,11 L-11,9 L-10,9 L-10,7 L-9,7 L-9,6 L-8,6 L-8,4 L-6,4 L-6,3 L-5,3 L-5,2 L-3,2 L-3,1 L0,1 Z M0,2 L0,3 L-3,3 L-3,4 L-5,4 L-5,5 L-6,5 L-6,6 L-7,6 L-7,7 L-8,7 L-8,9 L-9,9 L-9,11 L-10,11 L-10,138 L-9,138 L-9,140 L-8,140 L-8,142 L-7,142 L-7,143 L-6,143 L-6,144 L-4,144 L-4,145 L-2,145 L-2,146 L1,146 L1,147 L83,147 L83,146 L86,146 L86,145 L88,145 L88,144 L90,144 L90,143 L91,143 L91,142 L92,142 L92,140 L93,140 L93,138 L94,138 L94,118 L93,118 L93,115 L92,115 L92,114 L91,114 L91,113 L90,113 L90,112 L89,112 L89,111 L88,111 L88,110 L85,110 L85,109 L55,109 L55,108 L54,108 L54,94 L56,94 L56,93 L58,93 L58,94 L59,94 L59,93 L61,93 L61,94 L62,94 L62,93 L64,93 L64,94 L65,94 L65,93 L67,93 L67,94 L68,94 L68,93 L73,93 L73,92 L75,92 L75,91 L76,91 L76,90 L77,90 L77,89 L78,89 L78,88 L79,88 L79,86 L80,86 L80,84 L81,84 L81,65 L80,65 L80,62 L79,62 L79,61 L78,61 L78,59 L76,59 L76,58 L75,58 L75,57 L73,57 L73,56 L68,56 L68,55 L66,55 L66,56 L65,56 L65,55 L64,55 L64,56 L63,56 L63,55 L62,55 L62,56 L61,56 L61,55 L60,55 L60,56 L59,56 L59,55 L58,55 L58,56 L57,56 L57,55 L54,55 L54,41 L55,41 L55,40 L72,40 L72,39 L74,39 L74,38 L76,38 L76,37 L77,37 L77,36 L78,36 L78,35 L79,35 L79,33 L80,33 L80,31 L81,31 L81,12 L80,12 L80,9 L79,9 L79,7 L78,7 L78,6 L77,6 L77,5 L76,5 L76,4 L74,4 L74,3 L71,3 L71,2 Z " fill="#000000" transform="translate(794,7)"/>
<path d="M0,0 L84,0 L84,1 L87,1 L87,2 L89,2 L89,3 L90,3 L90,4 L92,4 L92,6 L93,6 L93,7 L94,7 L94,9 L95,9 L95,11 L96,11 L96,31 L95,31 L95,33 L94,33 L94,35 L93,35 L93,37 L92,37 L92,38 L91,38 L91,39 L89,39 L89,40 L88,40 L88,41 L85,41 L85,42 L70,42 L70,43 L69,43 L69,131 L70,131 L70,132 L69,132 L69,133 L70,133 L70,135 L69,135 L69,139 L68,139 L68,141 L67,141 L67,143 L66,143 L66,144 L65,144 L65,145 L64,145 L64,146 L62,146 L62,147 L60,147 L60,148 L57,148 L57,149 L27,149 L27,148 L24,148 L24,147 L21,147 L21,146 L20,146 L20,145 L19,145 L19,144 L18,144 L18,143 L17,143 L17,141 L16,141 L16,139 L15,139 L15,136 L14,136 L14,42 L-1,42 L-1,41 L-4,41 L-4,40 L-6,40 L-6,39 L-7,39 L-7,38 L-8,38 L-8,37 L-9,37 L-9,36 L-10,36 L-10,34 L-11,34 L-11,32 L-12,32 L-12,11 L-11,11 L-11,8 L-10,8 L-10,7 L-9,7 L-9,5 L-8,5 L-8,4 L-7,4 L-7,3 L-5,3 L-5,2 L-3,2 L-3,1 L0,1 Z M0,2 L0,3 L-3,3 L-3,4 L-5,4 L-5,5 L-6,5 L-6,6 L-7,6 L-7,7 L-8,7 L-8,9 L-9,9 L-9,10 L-10,10 L-10,32 L-9,32 L-9,34 L-8,34 L-8,35 L-7,35 L-7,36 L-6,36 L-6,37 L-5,37 L-5,38 L-4,38 L-4,39 L-2,39 L-2,40 L16,40 L16,136 L17,136 L17,139 L18,139 L18,141 L19,141 L19,142 L20,142 L20,143 L21,143 L21,144 L22,144 L22,145 L24,145 L24,146 L27,146 L27,147 L57,147 L57,146 L60,146 L60,145 L62,145 L62,144 L63,144 L63,143 L64,143 L64,142 L65,142 L65,141 L66,141 L66,139 L67,139 L67,135 L68,135 L68,130 L67,130 L67,129 L68,129 L68,128 L67,128 L67,127 L68,127 L68,126 L67,126 L67,125 L68,125 L68,124 L67,124 L67,123 L68,123 L68,122 L67,122 L67,121 L68,121 L68,120 L67,120 L67,119 L68,119 L68,118 L67,118 L67,117 L68,117 L68,116 L67,116 L67,115 L68,115 L68,114 L67,114 L67,113 L68,113 L68,112 L67,112 L67,111 L68,111 L68,110 L67,110 L67,109 L68,109 L68,108 L67,108 L67,107 L68,107 L68,106 L67,106 L67,105 L68,105 L68,104 L67,104 L67,103 L68,103 L68,102 L67,102 L67,101 L68,101 L68,100 L67,100 L67,99 L68,99 L68,98 L67,98 L67,97 L68,97 L68,96 L67,96 L67,95 L68,95 L68,94 L67,94 L67,93 L68,93 L68,92 L67,92 L67,91 L68,91 L68,90 L67,90 L67,89 L68,89 L68,88 L67,88 L67,87 L68,87 L68,86 L67,86 L67,85 L68,85 L68,84 L67,84 L67,83 L68,83 L68,82 L67,82 L67,81 L68,81 L68,79 L67,79 L67,78 L68,78 L68,76 L67,76 L67,75 L68,75 L68,72 L67,72 L67,71 L68,71 L68,69 L67,69 L67,68 L68,68 L68,66 L67,66 L67,65 L68,65 L68,63 L67,63 L67,62 L68,62 L68,60 L67,60 L67,59 L68,59 L68,57 L67,57 L67,56 L68,56 L68,47 L67,47 L67,46 L68,46 L68,45 L67,45 L67,44 L68,44 L68,43 L67,43 L67,42 L68,42 L68,40 L85,40 L85,39 L87,39 L87,38 L89,38 L89,37 L90,37 L90,36 L91,36 L91,35 L92,35 L92,33 L93,33 L93,31 L94,31 L94,11 L93,11 L93,9 L92,9 L92,7 L91,7 L91,6 L90,6 L90,5 L89,5 L89,4 L87,4 L87,3 L84,3 L84,2 Z " fill="#000000" transform="translate(906,7)"/>
<path d="M0,0 L1,0 L1,1 L2,1 L2,0 L51,0 L51,13 L52,13 L52,14 L65,14 L65,27 L52,27 L52,26 L51,26 L51,14 L38,14 L38,67 L65,67 L65,80 L64,80 L64,81 L38,81 L38,120 L36,120 L36,121 L35,121 L35,120 L34,120 L34,121 L33,121 L33,120 L32,120 L32,121 L31,121 L31,120 L30,120 L30,121 L29,121 L29,120 L28,120 L28,121 L27,121 L27,120 L26,120 L26,121 L25,121 L25,120 L24,120 L24,121 L23,121 L23,120 L22,120 L22,121 L21,121 L21,120 L20,120 L20,121 L19,121 L19,120 L18,120 L18,121 L17,121 L17,120 L16,120 L16,121 L15,121 L15,120 L14,120 L14,121 L13,121 L13,120 L12,120 L12,121 L11,121 L11,120 L10,120 L10,121 L9,121 L9,120 L8,120 L8,121 L7,121 L7,120 L6,120 L6,121 L5,121 L5,120 L4,120 L4,121 L3,121 L3,120 L2,120 L2,121 L1,121 L1,120 L-2,120 L-2,1 L0,1 Z " fill="#000000" transform="translate(49,21)"/>
<path d="M0,0 L4,0 L4,1 L5,1 L5,0 L8,0 L8,1 L9,1 L9,0 L13,0 L13,1 L14,1 L14,0 L19,0 L19,1 L20,1 L20,0 L24,0 L24,1 L25,1 L25,0 L29,0 L29,1 L30,1 L30,0 L35,0 L35,1 L36,1 L36,0 L39,0 L39,1 L40,1 L40,0 L43,0 L43,1 L44,1 L44,0 L49,0 L49,1 L50,1 L50,0 L54,0 L54,1 L55,1 L55,0 L59,0 L59,1 L60,1 L60,0 L63,0 L63,1 L65,1 L65,106 L66,106 L66,107 L91,107 L91,108 L92,108 L92,120 L88,120 L88,121 L87,121 L87,120 L86,120 L86,121 L85,121 L85,120 L84,120 L84,121 L83,121 L83,120 L82,120 L82,121 L81,121 L81,120 L80,120 L80,121 L79,121 L79,120 L78,120 L78,121 L77,121 L77,120 L76,120 L76,121 L75,121 L75,120 L74,120 L74,121 L73,121 L73,120 L72,120 L72,121 L71,121 L71,120 L70,120 L70,121 L69,121 L69,120 L68,120 L68,121 L67,121 L67,120 L66,120 L66,121 L65,121 L65,120 L64,120 L64,121 L63,121 L63,120 L62,120 L62,121 L61,121 L61,120 L60,120 L60,121 L59,121 L59,120 L58,120 L58,121 L57,121 L57,120 L56,120 L56,121 L55,121 L55,120 L54,120 L54,121 L53,121 L53,120 L52,120 L52,121 L51,121 L51,120 L50,120 L50,121 L49,121 L49,120 L48,120 L48,121 L47,121 L47,120 L46,120 L46,121 L45,121 L45,120 L44,120 L44,121 L43,121 L43,120 L42,120 L42,121 L41,121 L41,120 L40,120 L40,121 L39,121 L39,120 L38,120 L38,121 L37,121 L37,120 L36,120 L36,121 L35,121 L35,120 L34,120 L34,121 L33,121 L33,120 L32,120 L32,121 L31,121 L31,120 L30,120 L30,121 L29,121 L29,120 L28,120 L28,121 L27,121 L27,120 L26,120 L26,121 L25,121 L25,120 L24,120 L24,121 L23,121 L23,120 L22,120 L22,121 L21,121 L21,120 L20,120 L20,121 L19,121 L19,120 L18,120 L18,121 L17,121 L17,120 L16,120 L16,121 L15,121 L15,120 L14,120 L14,121 L13,121 L13,120 L12,120 L12,121 L11,121 L11,120 L10,120 L10,121 L9,121 L9,120 L8,120 L8,121 L7,121 L7,120 L6,120 L6,121 L4,121 L4,120 L3,120 L3,121 L2,121 L2,120 L-1,120 L-1,109 L-2,109 L-2,108 L-1,108 L-1,107 L25,107 L25,14 L-1,14 L-1,1 L0,1 Z " fill="#000000" transform="translate(496,21)"/>
<path d="M0,0 L7,0 L7,1 L8,1 L8,0 L14,0 L14,1 L15,1 L15,0 L21,0 L21,1 L22,1 L22,0 L28,0 L28,1 L29,1 L29,0 L35,0 L35,1 L36,1 L36,0 L45,0 L45,1 L46,1 L46,0 L50,0 L50,1 L52,1 L52,14 L38,14 L38,67 L65,67 L65,80 L63,80 L63,81 L38,81 L38,120 L35,120 L35,121 L34,121 L34,120 L33,120 L33,121 L32,121 L32,120 L31,120 L31,121 L30,121 L30,120 L29,120 L29,121 L28,121 L28,120 L27,120 L27,121 L26,121 L26,120 L25,120 L25,121 L24,121 L24,120 L23,120 L23,121 L22,121 L22,120 L21,120 L21,121 L20,121 L20,120 L19,120 L19,121 L18,121 L18,120 L17,120 L17,121 L16,121 L16,120 L15,120 L15,121 L14,121 L14,120 L13,120 L13,121 L12,121 L12,120 L11,120 L11,121 L10,121 L10,120 L9,120 L9,121 L8,121 L8,120 L7,120 L7,121 L6,121 L6,120 L5,120 L5,121 L4,121 L4,120 L3,120 L3,121 L2,121 L2,120 L1,120 L1,121 L0,121 L0,120 L-2,120 L-2,1 L0,1 Z " fill="#000000" transform="translate(686,21)"/>
<path d="M0,0 L2,0 L2,1 L3,1 L3,0 L5,0 L5,1 L6,1 L6,0 L8,0 L8,1 L9,1 L9,0 L11,0 L11,1 L12,1 L12,0 L14,0 L14,1 L15,1 L15,0 L17,0 L17,1 L18,1 L18,0 L20,0 L20,1 L21,1 L21,0 L23,0 L23,1 L24,1 L24,0 L26,0 L26,1 L27,1 L27,0 L29,0 L29,1 L30,1 L30,0 L32,0 L32,1 L33,1 L33,0 L35,0 L35,1 L36,1 L36,0 L38,0 L38,1 L39,1 L39,0 L41,0 L41,1 L42,1 L42,0 L44,0 L44,1 L45,1 L45,0 L47,0 L47,1 L48,1 L48,0 L50,0 L50,1 L51,1 L51,0 L53,0 L53,1 L54,1 L54,0 L56,0 L56,1 L57,1 L57,0 L59,0 L59,1 L60,1 L60,0 L62,0 L62,1 L63,1 L63,0 L64,0 L64,1 L65,1 L65,13 L64,13 L64,14 L38,14 L38,53 L39,53 L39,54 L65,54 L65,67 L38,67 L38,107 L78,107 L78,120 L76,120 L76,121 L75,121 L75,120 L74,120 L74,121 L73,121 L73,120 L72,120 L72,121 L71,121 L71,120 L70,120 L70,121 L69,121 L69,120 L68,120 L68,121 L67,121 L67,120 L66,120 L66,121 L65,121 L65,120 L64,120 L64,121 L63,121 L63,120 L62,120 L62,121 L61,121 L61,120 L60,120 L60,121 L59,121 L59,120 L58,120 L58,121 L57,121 L57,120 L56,120 L56,121 L55,121 L55,120 L54,120 L54,121 L53,121 L53,120 L52,120 L52,121 L51,121 L51,120 L50,120 L50,121 L49,121 L49,120 L48,120 L48,121 L47,121 L47,120 L46,120 L46,121 L45,121 L45,120 L44,120 L44,121 L43,121 L43,120 L42,120 L42,121 L41,121 L41,120 L40,120 L40,121 L39,121 L39,120 L38,120 L38,121 L37,121 L37,120 L36,120 L36,121 L35,121 L35,120 L34,120 L34,121 L33,121 L33,120 L32,120 L32,121 L31,121 L31,120 L30,120 L30,121 L29,121 L29,120 L28,120 L28,121 L27,121 L27,120 L26,120 L26,121 L25,121 L25,120 L24,120 L24,121 L23,121 L23,120 L22,120 L22,121 L21,121 L21,120 L20,120 L20,121 L19,121 L19,120 L18,120 L18,121 L17,121 L17,120 L16,120 L16,121 L15,121 L15,120 L14,120 L14,121 L13,121 L13,120 L12,120 L12,121 L11,121 L11,120 L10,120 L10,121 L9,121 L9,120 L8,120 L8,121 L7,121 L7,120 L6,120 L6,121 L5,121 L5,120 L4,120 L4,121 L3,121 L3,120 L2,120 L2,121 L1,121 L1,120 L-2,120 L-2,1 L0,1 Z " fill="#000000" transform="translate(798,21)"/>
<path d="M0,0 L2,0 L2,1 L3,1 L3,0 L5,0 L5,1 L6,1 L6,0 L8,0 L8,1 L9,1 L9,0 L11,0 L11,1 L12,1 L12,0 L14,0 L14,1 L15,1 L15,0 L17,0 L17,1 L18,1 L18,0 L20,0 L20,1 L21,1 L21,0 L23,0 L23,1 L24,1 L24,0 L26,0 L26,1 L27,1 L27,0 L29,0 L29,1 L30,1 L30,0 L32,0 L32,1 L33,1 L33,0 L35,0 L35,1 L36,1 L36,0 L38,0 L38,1 L39,1 L39,0 L41,0 L41,1 L42,1 L42,0 L44,0 L44,1 L45,1 L45,0 L47,0 L47,1 L48,1 L48,0 L50,0 L50,1 L51,1 L51,0 L53,0 L53,1 L54,1 L54,0 L56,0 L56,1 L57,1 L57,0 L59,0 L59,1 L60,1 L60,0 L62,0 L62,1 L63,1 L63,0 L65,0 L65,1 L66,1 L66,0 L68,0 L68,1 L69,1 L69,0 L71,0 L71,1 L72,1 L72,0 L74,0 L74,1 L75,1 L75,0 L76,0 L76,1 L79,1 L79,14 L52,14 L52,120 L50,120 L50,121 L49,121 L49,120 L48,120 L48,121 L47,121 L47,120 L46,120 L46,121 L45,121 L45,120 L44,120 L44,121 L43,121 L43,120 L42,120 L42,121 L41,121 L41,120 L40,120 L40,121 L39,121 L39,120 L38,120 L38,121 L37,121 L37,120 L36,120 L36,121 L35,121 L35,120 L34,120 L34,121 L33,121 L33,120 L32,120 L32,121 L31,121 L31,120 L30,120 L30,121 L29,121 L29,120 L28,120 L28,121 L27,121 L27,120 L26,120 L26,16 L25,16 L25,14 L-1,14 L-1,1 L0,1 Z " fill="#000000" transform="translate(909,21)"/>
<path d="M0,0 L1,0 L1,1 L2,1 L2,0 L6,0 L6,1 L7,1 L7,0 L10,0 L10,1 L12,1 L12,26 L11,26 L11,27 L-1,27 L-1,26 L-2,26 L-2,1 L0,1 Z " fill="#000000" transform="translate(214,21)"/>
<path d="M0,0 L13,0 L13,13 L0,13 Z " fill="#000000" transform="translate(738,35)"/>
<path d="M0,0 L42,0 L42,1 L46,1 L46,2 L48,2 L48,3 L50,3 L50,4 L51,4 L51,5 L52,5 L52,6 L53,6 L53,8 L54,8 L54,10 L55,10 L55,13 L56,13 L56,14 L59,14 L59,15 L61,15 L61,16 L63,16 L63,17 L64,17 L64,18 L65,18 L65,19 L66,19 L66,21 L67,21 L67,23 L68,23 L68,26 L69,26 L69,27 L70,27 L70,28 L73,28 L73,29 L75,29 L75,30 L76,30 L76,31 L78,31 L78,33 L79,33 L79,34 L80,34 L80,36 L81,36 L81,39 L82,39 L82,57 L81,57 L81,60 L80,60 L80,62 L79,62 L79,63 L78,63 L78,64 L77,64 L77,65 L76,65 L76,66 L75,66 L75,67 L73,67 L73,68 L74,68 L74,69 L75,69 L75,70 L77,70 L77,71 L78,71 L78,72 L79,72 L79,74 L80,74 L80,76 L81,76 L81,79 L82,79 L82,97 L81,97 L81,100 L80,100 L80,102 L79,102 L79,103 L78,103 L78,104 L77,104 L77,105 L76,105 L76,106 L74,106 L74,107 L72,107 L72,108 L69,108 L69,109 L0,109 L0,108 L-4,108 L-4,107 L-6,107 L-6,106 L-7,106 L-7,105 L-8,105 L-8,104 L-9,104 L-9,103 L-10,103 L-10,102 L-11,102 L-11,100 L-12,100 L-12,98 L-13,98 L-13,95 L-16,95 L-16,94 L-18,94 L-18,93 L-20,93 L-20,92 L-21,92 L-21,91 L-22,91 L-22,90 L-23,90 L-23,89 L-24,89 L-24,88 L-25,88 L-25,85 L-26,85 L-26,81 L-27,81 L-27,29 L-26,29 L-26,24 L-25,24 L-25,21 L-24,21 L-24,20 L-23,20 L-23,18 L-22,18 L-22,17 L-20,17 L-20,16 L-19,16 L-19,15 L-17,15 L-17,14 L-14,14 L-14,13 L-13,13 L-13,11 L-12,11 L-12,8 L-11,8 L-11,7 L-10,7 L-10,5 L-9,5 L-9,4 L-8,4 L-8,3 L-6,3 L-6,2 L-4,2 L-4,1 L0,1 Z M-1,2 L-1,3 L-4,3 L-4,4 L-6,4 L-6,5 L-7,5 L-7,6 L-8,6 L-8,7 L-9,7 L-9,9 L-10,9 L-10,11 L-11,11 L-11,15 L-13,15 L-13,16 L-17,16 L-17,17 L-19,17 L-19,18 L-20,18 L-20,19 L-21,19 L-21,20 L-22,20 L-22,22 L-23,22 L-23,24 L-24,24 L-24,27 L-25,27 L-25,82 L-24,82 L-24,85 L-23,85 L-23,87 L-22,87 L-22,89 L-21,89 L-21,90 L-20,90 L-20,91 L-18,91 L-18,92 L-16,92 L-16,93 L-12,93 L-12,94 L-11,94 L-11,98 L-10,98 L-10,100 L-9,100 L-9,102 L-8,102 L-8,103 L-7,103 L-7,104 L-5,104 L-5,105 L-4,105 L-4,106 L0,106 L0,107 L69,107 L69,106 L72,106 L72,105 L74,105 L74,104 L75,104 L75,103 L76,103 L76,102 L77,102 L77,101 L78,101 L78,100 L79,100 L79,97 L80,97 L80,79 L79,79 L79,76 L78,76 L78,74 L77,74 L77,73 L76,73 L76,72 L75,72 L75,71 L74,71 L74,70 L71,70 L71,69 L41,69 L41,68 L40,68 L40,67 L70,67 L70,66 L73,66 L73,65 L74,65 L74,64 L76,64 L76,63 L77,63 L77,61 L78,61 L78,59 L79,59 L79,57 L80,57 L80,38 L79,38 L79,36 L78,36 L78,34 L77,34 L77,33 L76,33 L76,32 L75,32 L75,31 L73,31 L73,30 L70,30 L70,29 L67,29 L67,26 L66,26 L66,23 L65,23 L65,21 L64,21 L64,20 L63,20 L63,19 L62,19 L62,18 L61,18 L61,17 L59,17 L59,16 L55,16 L55,15 L53,15 L53,10 L52,10 L52,8 L51,8 L51,7 L50,7 L50,6 L49,6 L49,5 L48,5 L48,4 L46,4 L46,3 L43,3 L43,2 Z " fill="#000000" transform="translate(395,47)"/>
<path d="M0,0 L13,0 L13,40 L0,40 Z " fill="#000000" transform="translate(114,48)"/>
<path d="M0,0 L13,0 L13,40 L0,40 Z " fill="#000000" transform="translate(751,48)"/>
<path d="M0,0 L67,0 L67,66 L93,66 L93,79 L88,79 L88,80 L87,80 L87,79 L86,79 L86,80 L85,80 L85,79 L84,79 L84,80 L83,80 L83,79 L82,79 L82,80 L81,80 L81,79 L80,79 L80,80 L79,80 L79,79 L78,79 L78,80 L77,80 L77,79 L76,79 L76,80 L75,80 L75,79 L74,79 L74,80 L73,80 L73,79 L72,79 L72,80 L71,80 L71,79 L70,79 L70,80 L69,80 L69,79 L68,79 L68,80 L67,80 L67,79 L66,79 L66,80 L65,80 L65,79 L64,79 L64,80 L63,80 L63,79 L62,79 L62,80 L61,80 L61,79 L60,79 L60,80 L59,80 L59,79 L58,79 L58,80 L57,80 L57,79 L56,79 L56,80 L55,80 L55,79 L54,79 L54,80 L53,80 L53,79 L52,79 L52,80 L51,80 L51,79 L50,79 L50,80 L49,80 L49,79 L48,79 L48,80 L47,80 L47,79 L46,79 L46,80 L45,80 L45,79 L44,79 L44,80 L43,80 L43,79 L42,79 L42,80 L41,80 L41,79 L40,79 L40,80 L39,80 L39,79 L38,79 L38,80 L37,80 L37,79 L36,79 L36,80 L35,80 L35,79 L34,79 L34,80 L33,80 L33,79 L32,79 L32,80 L31,80 L31,79 L30,79 L30,80 L29,80 L29,79 L28,79 L28,80 L27,80 L27,79 L26,79 L26,80 L25,80 L25,79 L24,79 L24,80 L23,80 L23,79 L22,79 L22,80 L21,80 L21,79 L20,79 L20,80 L19,80 L19,79 L18,79 L18,80 L17,80 L17,79 L16,79 L16,80 L15,80 L15,79 L14,79 L14,80 L13,80 L13,79 L12,79 L12,80 L11,80 L11,79 L10,79 L10,80 L9,80 L9,79 L8,79 L8,80 L7,80 L7,79 L6,79 L6,80 L5,80 L5,79 L4,79 L4,80 L3,80 L3,79 L0,79 L0,67 L1,67 L1,66 L26,66 L26,64 L27,64 L27,15 L26,15 L26,13 L1,13 L1,12 L0,12 Z " fill="#000000" transform="translate(159,62)"/>
<path d="M0,0 L1,0 L1,12 L2,12 L2,14 L15,14 L15,27 L28,27 L28,40 L38,40 L38,41 L39,41 L39,40 L40,40 L40,41 L41,41 L41,65 L42,65 L42,67 L54,67 L54,68 L55,68 L55,80 L53,80 L53,81 L52,81 L52,80 L51,80 L51,81 L50,81 L50,80 L49,80 L49,81 L48,81 L48,80 L47,80 L47,81 L46,81 L46,80 L45,80 L45,81 L44,81 L44,80 L43,80 L43,81 L42,81 L42,80 L41,80 L41,81 L40,81 L40,80 L39,80 L39,81 L38,81 L38,80 L37,80 L37,81 L36,81 L36,80 L35,80 L35,81 L34,81 L34,80 L33,80 L33,81 L32,81 L32,80 L28,80 L28,67 L15,67 L15,55 L14,55 L14,54 L2,54 L2,53 L1,53 L1,41 L-10,41 L-10,40 L-12,40 L-12,14 L-25,14 L-25,1 L0,1 Z " fill="#000000" transform="translate(296,61)"/>
<path d="M0,0 L1,0 L1,1 L3,1 L3,13 L2,13 L2,14 L-10,14 L-10,13 L-11,13 L-11,2 L-10,2 L-10,1 L0,1 Z " fill="#000000" transform="translate(348,61)"/>
<path d="M0,0 L1,0 L1,1 L34,1 L34,0 L35,0 L35,1 L38,1 L38,14 L51,14 L51,26 L52,26 L52,27 L64,27 L64,28 L65,28 L65,40 L62,40 L62,41 L25,41 L25,67 L64,67 L64,68 L65,68 L65,80 L61,80 L61,81 L60,81 L60,80 L59,80 L59,81 L58,81 L58,80 L57,80 L57,81 L56,81 L56,80 L55,80 L55,81 L54,81 L54,80 L53,80 L53,81 L52,81 L52,80 L51,80 L51,81 L50,81 L50,80 L49,80 L49,81 L48,81 L48,80 L47,80 L47,81 L46,81 L46,80 L45,80 L45,81 L44,81 L44,80 L43,80 L43,81 L42,81 L42,80 L41,80 L41,81 L40,81 L40,80 L39,80 L39,81 L38,81 L38,80 L37,80 L37,81 L36,81 L36,80 L35,80 L35,81 L34,81 L34,80 L33,80 L33,81 L32,81 L32,80 L31,80 L31,81 L30,81 L30,80 L29,80 L29,81 L28,81 L28,80 L27,80 L27,81 L26,81 L26,80 L25,80 L25,81 L24,81 L24,80 L23,80 L23,81 L22,81 L22,80 L21,80 L21,81 L20,81 L20,80 L19,80 L19,81 L18,81 L18,80 L17,80 L17,81 L16,81 L16,80 L15,80 L15,81 L14,81 L14,80 L13,80 L13,81 L12,81 L12,80 L11,80 L11,81 L10,81 L10,80 L9,80 L9,81 L8,81 L8,80 L7,80 L7,81 L6,81 L6,80 L5,80 L5,81 L4,81 L4,80 L3,80 L3,81 L2,81 L2,80 L1,80 L1,81 L0,81 L0,80 L-2,80 L-2,68 L-3,68 L-3,67 L-15,67 L-15,14 L-3,14 L-3,13 L-2,13 L-2,1 L0,1 Z M25,14 L25,27 L38,27 L38,14 Z " fill="#000000" transform="translate(398,61)"/>
<path d="M0,0 L13,0 L13,13 L0,13 Z " fill="#000000" transform="translate(324,75)"/>
<path d="M0,0 L13,0 L13,13 L0,13 Z " fill="#000000" transform="translate(284,115)"/>
<path d="M0,0 L13,0 L13,13 L10,13 L10,14 L9,14 L9,13 L8,13 L8,14 L7,14 L7,13 L6,13 L6,14 L5,14 L5,13 L4,13 L4,14 L3,14 L3,13 L0,13 Z " fill="#000000" transform="translate(271,128)"/>
</svg>
